<?xml version="1.0" encoding="utf-8" standalone="no"?>
<!DOCTYPE svg PUBLIC "-//W3C//DTD SVG 1.1//EN"
  "http://www.w3.org/Graphics/SVG/1.1/DTD/svg11.dtd">
<!-- Created with matplotlib (http://matplotlib.org/) -->
<svg height="595pt" version="1.1" viewBox="0 0 999 595" width="999pt" xmlns="http://www.w3.org/2000/svg" xmlns:xlink="http://www.w3.org/1999/xlink">
 <defs>
  <style type="text/css">
*{stroke-linecap:butt;stroke-linejoin:round;}
  </style>
 </defs>
 <g id="figure_1">
  <g id="patch_1">
   <path d="
M0 595.8
L999.9 595.8
L999.9 0
L0 0
z
" style="fill:#ffffff;"/>
  </g>
  <g id="axes_1">
   <g id="patch_2">
    <path d="
M249.975 566.01
L899.91 566.01
L899.91 29.79
L249.975 29.79
z
" style="fill:#e5e5e5;"/>
   </g>
   <g id="matplotlib.axis_1">
    <g id="xtick_1">
     <g id="line2d_1">
      <path clip-path="url(#ped7164e357)" d="
M249.975 566.01
L249.975 29.79" style="fill:none;stroke:#ffffff;stroke-linecap:square;stroke-width:0.5;"/>
     </g>
     <g id="line2d_2">
      <defs>
       <path d="
M0 0
L0 4" id="m64c3aef5f4" style="stroke:#555555;stroke-width:0.5;"/>
      </defs>
      <g>
       <use style="fill:#555555;stroke:#555555;stroke-width:0.5;" x="249.975" xlink:href="#m64c3aef5f4" y="566.01"/>
      </g>
     </g>
     <g id="line2d_3">
      <defs>
       <path d="
M0 0
L0 -4" id="m91191bb255" style="stroke:#555555;stroke-width:0.5;"/>
      </defs>
      <g>
       <use style="fill:#555555;stroke:#555555;stroke-width:0.5;" x="249.975" xlink:href="#m91191bb255" y="29.79"/>
      </g>
     </g>
     <g id="text_1">
      <!-- 0.0 -->
      <defs>
       <path d="
M31.7812 66.4062
Q24.1719 66.4062 20.3281 58.9062
Q16.5 51.4219 16.5 36.375
Q16.5 21.3906 20.3281 13.8906
Q24.1719 6.39062 31.7812 6.39062
Q39.4531 6.39062 43.2812 13.8906
Q47.125 21.3906 47.125 36.375
Q47.125 51.4219 43.2812 58.9062
Q39.4531 66.4062 31.7812 66.4062
M31.7812 74.2188
Q44.0469 74.2188 50.5156 64.5156
Q56.9844 54.8281 56.9844 36.375
Q56.9844 17.9688 50.5156 8.26562
Q44.0469 -1.42188 31.7812 -1.42188
Q19.5312 -1.42188 13.0625 8.26562
Q6.59375 17.9688 6.59375 36.375
Q6.59375 54.8281 13.0625 64.5156
Q19.5312 74.2188 31.7812 74.2188" id="BitstreamVeraSans-Roman-30"/>
       <path d="
M10.6875 12.4062
L21 12.4062
L21 0
L10.6875 0
z
" id="BitstreamVeraSans-Roman-2e"/>
      </defs>
      <g style="fill:#555555;" transform="translate(242.68515625 581.6084375)scale(0.1 -0.1)">
       <use xlink:href="#BitstreamVeraSans-Roman-30"/>
       <use x="63.623046875" xlink:href="#BitstreamVeraSans-Roman-2e"/>
       <use x="95.41015625" xlink:href="#BitstreamVeraSans-Roman-30"/>
      </g>
     </g>
    </g>
    <g id="xtick_2">
     <g id="line2d_4">
      <path clip-path="url(#ped7164e357)" d="
M379.962 566.01
L379.962 29.79" style="fill:none;stroke:#ffffff;stroke-linecap:square;stroke-width:0.5;"/>
     </g>
     <g id="line2d_5">
      <g>
       <use style="fill:#555555;stroke:#555555;stroke-width:0.5;" x="379.962" xlink:href="#m64c3aef5f4" y="566.01"/>
      </g>
     </g>
     <g id="line2d_6">
      <g>
       <use style="fill:#555555;stroke:#555555;stroke-width:0.5;" x="379.962" xlink:href="#m91191bb255" y="29.79"/>
      </g>
     </g>
     <g id="text_2">
      <!-- 0.2 -->
      <defs>
       <path d="
M19.1875 8.29688
L53.6094 8.29688
L53.6094 0
L7.32812 0
L7.32812 8.29688
Q12.9375 14.1094 22.625 23.8906
Q32.3281 33.6875 34.8125 36.5312
Q39.5469 41.8438 41.4219 45.5312
Q43.3125 49.2188 43.3125 52.7812
Q43.3125 58.5938 39.2344 62.25
Q35.1562 65.9219 28.6094 65.9219
Q23.9688 65.9219 18.8125 64.3125
Q13.6719 62.7031 7.8125 59.4219
L7.8125 69.3906
Q13.7656 71.7812 18.9375 73
Q24.125 74.2188 28.4219 74.2188
Q39.75 74.2188 46.4844 68.5469
Q53.2188 62.8906 53.2188 53.4219
Q53.2188 48.9219 51.5312 44.8906
Q49.8594 40.875 45.4062 35.4062
Q44.1875 33.9844 37.6406 27.2188
Q31.1094 20.4531 19.1875 8.29688" id="BitstreamVeraSans-Roman-32"/>
      </defs>
      <g style="fill:#555555;" transform="translate(372.84090625 581.6084375)scale(0.1 -0.1)">
       <use xlink:href="#BitstreamVeraSans-Roman-30"/>
       <use x="63.623046875" xlink:href="#BitstreamVeraSans-Roman-2e"/>
       <use x="95.41015625" xlink:href="#BitstreamVeraSans-Roman-32"/>
      </g>
     </g>
    </g>
    <g id="xtick_3">
     <g id="line2d_7">
      <path clip-path="url(#ped7164e357)" d="
M509.949 566.01
L509.949 29.79" style="fill:none;stroke:#ffffff;stroke-linecap:square;stroke-width:0.5;"/>
     </g>
     <g id="line2d_8">
      <g>
       <use style="fill:#555555;stroke:#555555;stroke-width:0.5;" x="509.949" xlink:href="#m64c3aef5f4" y="566.01"/>
      </g>
     </g>
     <g id="line2d_9">
      <g>
       <use style="fill:#555555;stroke:#555555;stroke-width:0.5;" x="509.949" xlink:href="#m91191bb255" y="29.79"/>
      </g>
     </g>
     <g id="text_3">
      <!-- 0.4 -->
      <defs>
       <path d="
M37.7969 64.3125
L12.8906 25.3906
L37.7969 25.3906
z

M35.2031 72.9062
L47.6094 72.9062
L47.6094 25.3906
L58.0156 25.3906
L58.0156 17.1875
L47.6094 17.1875
L47.6094 0
L37.7969 0
L37.7969 17.1875
L4.89062 17.1875
L4.89062 26.7031
z
" id="BitstreamVeraSans-Roman-34"/>
      </defs>
      <g style="fill:#555555;" transform="translate(502.60759375 581.6084375)scale(0.1 -0.1)">
       <use xlink:href="#BitstreamVeraSans-Roman-30"/>
       <use x="63.623046875" xlink:href="#BitstreamVeraSans-Roman-2e"/>
       <use x="95.41015625" xlink:href="#BitstreamVeraSans-Roman-34"/>
      </g>
     </g>
    </g>
    <g id="xtick_4">
     <g id="line2d_10">
      <path clip-path="url(#ped7164e357)" d="
M639.936 566.01
L639.936 29.79" style="fill:none;stroke:#ffffff;stroke-linecap:square;stroke-width:0.5;"/>
     </g>
     <g id="line2d_11">
      <g>
       <use style="fill:#555555;stroke:#555555;stroke-width:0.5;" x="639.936" xlink:href="#m64c3aef5f4" y="566.01"/>
      </g>
     </g>
     <g id="line2d_12">
      <g>
       <use style="fill:#555555;stroke:#555555;stroke-width:0.5;" x="639.936" xlink:href="#m91191bb255" y="29.79"/>
      </g>
     </g>
     <g id="text_4">
      <!-- 0.6 -->
      <defs>
       <path d="
M33.0156 40.375
Q26.375 40.375 22.4844 35.8281
Q18.6094 31.2969 18.6094 23.3906
Q18.6094 15.5312 22.4844 10.9531
Q26.375 6.39062 33.0156 6.39062
Q39.6562 6.39062 43.5312 10.9531
Q47.4062 15.5312 47.4062 23.3906
Q47.4062 31.2969 43.5312 35.8281
Q39.6562 40.375 33.0156 40.375
M52.5938 71.2969
L52.5938 62.3125
Q48.875 64.0625 45.0938 64.9844
Q41.3125 65.9219 37.5938 65.9219
Q27.8281 65.9219 22.6719 59.3281
Q17.5312 52.7344 16.7969 39.4062
Q19.6719 43.6562 24.0156 45.9219
Q28.375 48.1875 33.5938 48.1875
Q44.5781 48.1875 50.9531 41.5156
Q57.3281 34.8594 57.3281 23.3906
Q57.3281 12.1562 50.6875 5.35938
Q44.0469 -1.42188 33.0156 -1.42188
Q20.3594 -1.42188 13.6719 8.26562
Q6.98438 17.9688 6.98438 36.375
Q6.98438 53.6562 15.1875 63.9375
Q23.3906 74.2188 37.2031 74.2188
Q40.9219 74.2188 44.7031 73.4844
Q48.4844 72.75 52.5938 71.2969" id="BitstreamVeraSans-Roman-36"/>
      </defs>
      <g style="fill:#555555;" transform="translate(632.62896875 581.6084375)scale(0.1 -0.1)">
       <use xlink:href="#BitstreamVeraSans-Roman-30"/>
       <use x="63.623046875" xlink:href="#BitstreamVeraSans-Roman-2e"/>
       <use x="95.41015625" xlink:href="#BitstreamVeraSans-Roman-36"/>
      </g>
     </g>
    </g>
    <g id="xtick_5">
     <g id="line2d_13">
      <path clip-path="url(#ped7164e357)" d="
M769.923 566.01
L769.923 29.79" style="fill:none;stroke:#ffffff;stroke-linecap:square;stroke-width:0.5;"/>
     </g>
     <g id="line2d_14">
      <g>
       <use style="fill:#555555;stroke:#555555;stroke-width:0.5;" x="769.923" xlink:href="#m64c3aef5f4" y="566.01"/>
      </g>
     </g>
     <g id="line2d_15">
      <g>
       <use style="fill:#555555;stroke:#555555;stroke-width:0.5;" x="769.923" xlink:href="#m91191bb255" y="29.79"/>
      </g>
     </g>
     <g id="text_5">
      <!-- 0.8 -->
      <defs>
       <path d="
M31.7812 34.625
Q24.75 34.625 20.7188 30.8594
Q16.7031 27.0938 16.7031 20.5156
Q16.7031 13.9219 20.7188 10.1562
Q24.75 6.39062 31.7812 6.39062
Q38.8125 6.39062 42.8594 10.1719
Q46.9219 13.9688 46.9219 20.5156
Q46.9219 27.0938 42.8906 30.8594
Q38.875 34.625 31.7812 34.625
M21.9219 38.8125
Q15.5781 40.375 12.0312 44.7188
Q8.5 49.0781 8.5 55.3281
Q8.5 64.0625 14.7188 69.1406
Q20.9531 74.2188 31.7812 74.2188
Q42.6719 74.2188 48.875 69.1406
Q55.0781 64.0625 55.0781 55.3281
Q55.0781 49.0781 51.5312 44.7188
Q48 40.375 41.7031 38.8125
Q48.8281 37.1562 52.7969 32.3125
Q56.7812 27.4844 56.7812 20.5156
Q56.7812 9.90625 50.3125 4.23438
Q43.8438 -1.42188 31.7812 -1.42188
Q19.7344 -1.42188 13.25 4.23438
Q6.78125 9.90625 6.78125 20.5156
Q6.78125 27.4844 10.7812 32.3125
Q14.7969 37.1562 21.9219 38.8125
M18.3125 54.3906
Q18.3125 48.7344 21.8438 45.5625
Q25.3906 42.3906 31.7812 42.3906
Q38.1406 42.3906 41.7188 45.5625
Q45.3125 48.7344 45.3125 54.3906
Q45.3125 60.0625 41.7188 63.2344
Q38.1406 66.4062 31.7812 66.4062
Q25.3906 66.4062 21.8438 63.2344
Q18.3125 60.0625 18.3125 54.3906" id="BitstreamVeraSans-Roman-38"/>
      </defs>
      <g style="fill:#555555;" transform="translate(762.6433125 581.6084375)scale(0.1 -0.1)">
       <use xlink:href="#BitstreamVeraSans-Roman-30"/>
       <use x="63.623046875" xlink:href="#BitstreamVeraSans-Roman-2e"/>
       <use x="95.41015625" xlink:href="#BitstreamVeraSans-Roman-38"/>
      </g>
     </g>
    </g>
    <g id="xtick_6">
     <g id="line2d_16">
      <path clip-path="url(#ped7164e357)" d="
M899.91 566.01
L899.91 29.79" style="fill:none;stroke:#ffffff;stroke-linecap:square;stroke-width:0.5;"/>
     </g>
     <g id="line2d_17">
      <g>
       <use style="fill:#555555;stroke:#555555;stroke-width:0.5;" x="899.91" xlink:href="#m64c3aef5f4" y="566.01"/>
      </g>
     </g>
     <g id="line2d_18">
      <g>
       <use style="fill:#555555;stroke:#555555;stroke-width:0.5;" x="899.91" xlink:href="#m91191bb255" y="29.79"/>
      </g>
     </g>
     <g id="text_6">
      <!-- 1.0 -->
      <defs>
       <path d="
M12.4062 8.29688
L28.5156 8.29688
L28.5156 63.9219
L10.9844 60.4062
L10.9844 69.3906
L28.4219 72.9062
L38.2812 72.9062
L38.2812 8.29688
L54.3906 8.29688
L54.3906 0
L12.4062 0
z
" id="BitstreamVeraSans-Roman-31"/>
      </defs>
      <g style="fill:#555555;" transform="translate(892.8396875 581.6084375)scale(0.1 -0.1)">
       <use xlink:href="#BitstreamVeraSans-Roman-31"/>
       <use x="63.623046875" xlink:href="#BitstreamVeraSans-Roman-2e"/>
       <use x="95.41015625" xlink:href="#BitstreamVeraSans-Roman-30"/>
      </g>
     </g>
    </g>
   </g>
   <g id="matplotlib.axis_2"/>
   <g id="patch_3">
    <path clip-path="url(#ped7164e357)" d="
M249.975 566.01
L733.929 566.01
L733.929 559.307
L249.975 559.307
z
" style="fill:#000080;stroke:#eeeeee;stroke-linejoin:miter;stroke-width:0.5;"/>
   </g>
   <g id="patch_4">
    <path clip-path="url(#ped7164e357)" d="
M249.975 532.496
L743.729 532.496
L743.729 525.793
L249.975 525.793
z
" style="fill:#000080;stroke:#eeeeee;stroke-linejoin:miter;stroke-width:0.5;"/>
   </g>
   <g id="patch_5">
    <path clip-path="url(#ped7164e357)" d="
M249.975 498.983
L751.277 498.983
L751.277 492.28
L249.975 492.28
z
" style="fill:#000080;stroke:#eeeeee;stroke-linejoin:miter;stroke-width:0.5;"/>
   </g>
   <g id="patch_6">
    <path clip-path="url(#ped7164e357)" d="
M249.975 465.469
L748.555 465.469
L748.555 458.766
L249.975 458.766
z
" style="fill:#000080;stroke:#eeeeee;stroke-linejoin:miter;stroke-width:0.5;"/>
   </g>
   <g id="patch_7">
    <path clip-path="url(#ped7164e357)" d="
M249.975 431.955
L745.774 431.955
L745.774 425.252
L249.975 425.252
z
" style="fill:#000080;stroke:#eeeeee;stroke-linejoin:miter;stroke-width:0.5;"/>
   </g>
   <g id="patch_8">
    <path clip-path="url(#ped7164e357)" d="
M249.975 398.441
L746.322 398.441
L746.322 391.739
L249.975 391.739
z
" style="fill:#000080;stroke:#eeeeee;stroke-linejoin:miter;stroke-width:0.5;"/>
   </g>
   <g id="patch_9">
    <path clip-path="url(#ped7164e357)" d="
M249.975 364.928
L746.807 364.928
L746.807 358.225
L249.975 358.225
z
" style="fill:#000080;stroke:#eeeeee;stroke-linejoin:miter;stroke-width:0.5;"/>
   </g>
   <g id="patch_10">
    <path clip-path="url(#ped7164e357)" d="
M249.975 331.414
L746.662 331.414
L746.662 324.711
L249.975 324.711
z
" style="fill:#000080;stroke:#eeeeee;stroke-linejoin:miter;stroke-width:0.5;"/>
   </g>
   <g id="patch_11">
    <path clip-path="url(#ped7164e357)" d="
M249.975 297.9
L753.01 297.9
L753.01 291.197
L249.975 291.197
z
" style="fill:#000080;stroke:#eeeeee;stroke-linejoin:miter;stroke-width:0.5;"/>
   </g>
   <g id="patch_12">
    <path clip-path="url(#ped7164e357)" d="
M249.975 264.386
L748.392 264.386
L748.392 257.684
L249.975 257.684
z
" style="fill:#000080;stroke:#eeeeee;stroke-linejoin:miter;stroke-width:0.5;"/>
   </g>
   <g id="patch_13">
    <path clip-path="url(#ped7164e357)" d="
M249.975 230.873
L703.003 230.873
L703.003 224.17
L249.975 224.17
z
" style="fill:#000080;stroke:#eeeeee;stroke-linejoin:miter;stroke-width:0.5;"/>
   </g>
   <g id="patch_14">
    <path clip-path="url(#ped7164e357)" d="
M249.975 197.359
L732.834 197.359
L732.834 190.656
L249.975 190.656
z
" style="fill:#000080;stroke:#eeeeee;stroke-linejoin:miter;stroke-width:0.5;"/>
   </g>
   <g id="patch_15">
    <path clip-path="url(#ped7164e357)" d="
M249.975 163.845
L749.973 163.845
L749.973 157.142
L249.975 157.142
z
" style="fill:#000080;stroke:#eeeeee;stroke-linejoin:miter;stroke-width:0.5;"/>
   </g>
   <g id="patch_16">
    <path clip-path="url(#ped7164e357)" d="
M249.975 130.331
L747.034 130.331
L747.034 123.629
L249.975 123.629
z
" style="fill:#000080;stroke:#eeeeee;stroke-linejoin:miter;stroke-width:0.5;"/>
   </g>
   <g id="patch_17">
    <path clip-path="url(#ped7164e357)" d="
M249.975 96.8175
L748.032 96.8175
L748.032 90.1148
L249.975 90.1148
z
" style="fill:#000080;stroke:#eeeeee;stroke-linejoin:miter;stroke-width:0.5;"/>
   </g>
   <g id="patch_18">
    <path clip-path="url(#ped7164e357)" d="
M249.975 63.3038
L755.121 63.3038
L755.121 56.601
L249.975 56.601
z
" style="fill:#000080;stroke:#eeeeee;stroke-linejoin:miter;stroke-width:0.5;"/>
   </g>
   <g id="patch_19">
    <path clip-path="url(#ped7164e357)" d="
M249.975 555.956
L633.506 555.956
L633.506 549.253
L249.975 549.253
z
" style="fill:#00bfbf;stroke:#eeeeee;stroke-linejoin:miter;stroke-width:0.5;"/>
   </g>
   <g id="patch_20">
    <path clip-path="url(#ped7164e357)" d="
M249.975 522.442
L642.451 522.442
L642.451 515.739
L249.975 515.739
z
" style="fill:#00bfbf;stroke:#eeeeee;stroke-linejoin:miter;stroke-width:0.5;"/>
   </g>
   <g id="patch_21">
    <path clip-path="url(#ped7164e357)" d="
M249.975 488.928
L643.339 488.928
L643.339 482.226
L249.975 482.226
z
" style="fill:#00bfbf;stroke:#eeeeee;stroke-linejoin:miter;stroke-width:0.5;"/>
   </g>
   <g id="patch_22">
    <path clip-path="url(#ped7164e357)" d="
M249.975 455.415
L629.464 455.415
L629.464 448.712
L249.975 448.712
z
" style="fill:#00bfbf;stroke:#eeeeee;stroke-linejoin:miter;stroke-width:0.5;"/>
   </g>
   <g id="patch_23">
    <path clip-path="url(#ped7164e357)" d="
M249.975 421.901
L899.91 421.901
L899.91 415.198
L249.975 415.198
z
" style="fill:#00bfbf;stroke:#eeeeee;stroke-linejoin:miter;stroke-width:0.5;"/>
   </g>
   <g id="patch_24">
    <path clip-path="url(#ped7164e357)" d="
M249.975 388.387
L633.701 388.387
L633.701 381.684
L249.975 381.684
z
" style="fill:#00bfbf;stroke:#eeeeee;stroke-linejoin:miter;stroke-width:0.5;"/>
   </g>
   <g id="patch_25">
    <path clip-path="url(#ped7164e357)" d="
M249.975 354.873
L643.016 354.873
L643.016 348.171
L249.975 348.171
z
" style="fill:#00bfbf;stroke:#eeeeee;stroke-linejoin:miter;stroke-width:0.5;"/>
   </g>
   <g id="patch_26">
    <path clip-path="url(#ped7164e357)" d="
M249.975 321.36
L634.759 321.36
L634.759 314.657
L249.975 314.657
z
" style="fill:#00bfbf;stroke:#eeeeee;stroke-linejoin:miter;stroke-width:0.5;"/>
   </g>
   <g id="patch_27">
    <path clip-path="url(#ped7164e357)" d="
M249.975 287.846
L648.94 287.846
L648.94 281.143
L249.975 281.143
z
" style="fill:#00bfbf;stroke:#eeeeee;stroke-linejoin:miter;stroke-width:0.5;"/>
   </g>
   <g id="patch_28">
    <path clip-path="url(#ped7164e357)" d="
M249.975 254.332
L648.947 254.332
L648.947 247.629
L249.975 247.629
z
" style="fill:#00bfbf;stroke:#eeeeee;stroke-linejoin:miter;stroke-width:0.5;"/>
   </g>
   <g id="patch_29">
    <path clip-path="url(#ped7164e357)" d="
M249.975 220.818
L630.609 220.818
L630.609 214.116
L249.975 214.116
z
" style="fill:#00bfbf;stroke:#eeeeee;stroke-linejoin:miter;stroke-width:0.5;"/>
   </g>
   <g id="patch_30">
    <path clip-path="url(#ped7164e357)" d="
M249.975 187.305
L629.715 187.305
L629.715 180.602
L249.975 180.602
z
" style="fill:#00bfbf;stroke:#eeeeee;stroke-linejoin:miter;stroke-width:0.5;"/>
   </g>
   <g id="patch_31">
    <path clip-path="url(#ped7164e357)" d="
M249.975 153.791
L630.324 153.791
L630.324 147.088
L249.975 147.088
z
" style="fill:#00bfbf;stroke:#eeeeee;stroke-linejoin:miter;stroke-width:0.5;"/>
   </g>
   <g id="patch_32">
    <path clip-path="url(#ped7164e357)" d="
M249.975 120.277
L641.386 120.277
L641.386 113.574
L249.975 113.574
z
" style="fill:#00bfbf;stroke:#eeeeee;stroke-linejoin:miter;stroke-width:0.5;"/>
   </g>
   <g id="patch_33">
    <path clip-path="url(#ped7164e357)" d="
M249.975 86.7634
L375.083 86.7634
L375.083 80.0606
L249.975 80.0606
z
" style="fill:#00bfbf;stroke:#eeeeee;stroke-linejoin:miter;stroke-width:0.5;"/>
   </g>
   <g id="patch_34">
    <path clip-path="url(#ped7164e357)" d="
M249.975 53.2496
L297.076 53.2496
L297.076 46.5469
L249.975 46.5469
z
" style="fill:#00bfbf;stroke:#eeeeee;stroke-linejoin:miter;stroke-width:0.5;"/>
   </g>
   <g id="patch_35">
    <path clip-path="url(#ped7164e357)" d="
M249.975 545.902
L788.946 545.902
L788.946 539.199
L249.975 539.199
z
" style="fill:#ff8c00;stroke:#eeeeee;stroke-linejoin:miter;stroke-width:0.5;"/>
   </g>
   <g id="patch_36">
    <path clip-path="url(#ped7164e357)" d="
M249.975 512.388
L789.128 512.388
L789.128 505.685
L249.975 505.685
z
" style="fill:#ff8c00;stroke:#eeeeee;stroke-linejoin:miter;stroke-width:0.5;"/>
   </g>
   <g id="patch_37">
    <path clip-path="url(#ped7164e357)" d="
M249.975 478.874
L789.011 478.874
L789.011 472.172
L249.975 472.172
z
" style="fill:#ff8c00;stroke:#eeeeee;stroke-linejoin:miter;stroke-width:0.5;"/>
   </g>
   <g id="patch_38">
    <path clip-path="url(#ped7164e357)" d="
M249.975 445.361
L897.143 445.361
L897.143 438.658
L249.975 438.658
z
" style="fill:#ff8c00;stroke:#eeeeee;stroke-linejoin:miter;stroke-width:0.5;"/>
   </g>
   <g id="patch_39">
    <path clip-path="url(#ped7164e357)" d="
M249.975 411.847
L899.91 411.847
L899.91 405.144
L249.975 405.144
z
" style="fill:#ff8c00;stroke:#eeeeee;stroke-linejoin:miter;stroke-width:0.5;"/>
   </g>
   <g id="patch_40">
    <path clip-path="url(#ped7164e357)" d="
M249.975 378.333
L789.023 378.333
L789.023 371.63
L249.975 371.63
z
" style="fill:#ff8c00;stroke:#eeeeee;stroke-linejoin:miter;stroke-width:0.5;"/>
   </g>
   <g id="patch_41">
    <path clip-path="url(#ped7164e357)" d="
M249.975 344.819
L788.995 344.819
L788.995 338.117
L249.975 338.117
z
" style="fill:#ff8c00;stroke:#eeeeee;stroke-linejoin:miter;stroke-width:0.5;"/>
   </g>
   <g id="patch_42">
    <path clip-path="url(#ped7164e357)" d="
M249.975 311.306
L789.18 311.306
L789.18 304.603
L249.975 304.603
z
" style="fill:#ff8c00;stroke:#eeeeee;stroke-linejoin:miter;stroke-width:0.5;"/>
   </g>
   <g id="patch_43">
    <path clip-path="url(#ped7164e357)" d="
M249.975 277.792
L789.04 277.792
L789.04 271.089
L249.975 271.089
z
" style="fill:#ff8c00;stroke:#eeeeee;stroke-linejoin:miter;stroke-width:0.5;"/>
   </g>
   <g id="patch_44">
    <path clip-path="url(#ped7164e357)" d="
M249.975 244.278
L789.034 244.278
L789.034 237.575
L249.975 237.575
z
" style="fill:#ff8c00;stroke:#eeeeee;stroke-linejoin:miter;stroke-width:0.5;"/>
   </g>
   <g id="patch_45">
    <path clip-path="url(#ped7164e357)" d="
M249.975 210.764
L789.215 210.764
L789.215 204.062
L249.975 204.062
z
" style="fill:#ff8c00;stroke:#eeeeee;stroke-linejoin:miter;stroke-width:0.5;"/>
   </g>
   <g id="patch_46">
    <path clip-path="url(#ped7164e357)" d="
M249.975 177.251
L788.912 177.251
L788.912 170.548
L249.975 170.548
z
" style="fill:#ff8c00;stroke:#eeeeee;stroke-linejoin:miter;stroke-width:0.5;"/>
   </g>
   <g id="patch_47">
    <path clip-path="url(#ped7164e357)" d="
M249.975 143.737
L789.257 143.737
L789.257 137.034
L249.975 137.034
z
" style="fill:#ff8c00;stroke:#eeeeee;stroke-linejoin:miter;stroke-width:0.5;"/>
   </g>
   <g id="patch_48">
    <path clip-path="url(#ped7164e357)" d="
M249.975 110.223
L791.671 110.223
L791.671 103.52
L249.975 103.52
z
" style="fill:#ff8c00;stroke:#eeeeee;stroke-linejoin:miter;stroke-width:0.5;"/>
   </g>
   <g id="patch_49">
    <path clip-path="url(#ped7164e357)" d="
M249.975 76.7093
L266.832 76.7093
L266.832 70.0065
L249.975 70.0065
z
" style="fill:#ff8c00;stroke:#eeeeee;stroke-linejoin:miter;stroke-width:0.5;"/>
   </g>
   <g id="patch_50">
    <path clip-path="url(#ped7164e357)" d="
M249.975 43.1955
L382.389 43.1955
L382.389 36.4928
L249.975 36.4928
z
" style="fill:#ff8c00;stroke:#eeeeee;stroke-linejoin:miter;stroke-width:0.5;"/>
   </g>
   <g id="patch_51">
    <path d="
M249.975 29.79
L899.91 29.79" style="fill:none;stroke:#ffffff;stroke-linecap:square;stroke-linejoin:miter;"/>
   </g>
   <g id="patch_52">
    <path d="
M899.91 566.01
L899.91 29.79" style="fill:none;stroke:#ffffff;stroke-linecap:square;stroke-linejoin:miter;"/>
   </g>
   <g id="patch_53">
    <path d="
M249.975 566.01
L899.91 566.01" style="fill:none;stroke:#ffffff;stroke-linecap:square;stroke-linejoin:miter;"/>
   </g>
   <g id="patch_54">
    <path d="
M249.975 566.01
L249.975 29.79" style="fill:none;stroke:#ffffff;stroke-linecap:square;stroke-linejoin:miter;"/>
   </g>
   <g id="text_7">
    <!-- RidgeClassifier -->
    <defs>
     <path d="
M41.1094 46.2969
Q39.5938 47.1719 37.8125 47.5781
Q36.0312 48 33.8906 48
Q26.2656 48 22.1875 43.0469
Q18.1094 38.0938 18.1094 28.8125
L18.1094 0
L9.07812 0
L9.07812 54.6875
L18.1094 54.6875
L18.1094 46.1875
Q20.9531 51.1719 25.4844 53.5781
Q30.0312 56 36.5312 56
Q37.4531 56 38.5781 55.875
Q39.7031 55.7656 41.0625 55.5156
z
" id="BitstreamVeraSans-Roman-72"/>
     <path d="
M64.4062 67.2812
L64.4062 56.8906
Q59.4219 61.5312 53.7812 63.8125
Q48.1406 66.1094 41.7969 66.1094
Q29.2969 66.1094 22.6562 58.4688
Q16.0156 50.8281 16.0156 36.375
Q16.0156 21.9688 22.6562 14.3281
Q29.2969 6.6875 41.7969 6.6875
Q48.1406 6.6875 53.7812 8.98438
Q59.4219 11.2812 64.4062 15.9219
L64.4062 5.60938
Q59.2344 2.09375 53.4375 0.328125
Q47.6562 -1.42188 41.2188 -1.42188
Q24.6562 -1.42188 15.125 8.70312
Q5.60938 18.8438 5.60938 36.375
Q5.60938 53.9531 15.125 64.0781
Q24.6562 74.2188 41.2188 74.2188
Q47.75 74.2188 53.5312 72.4844
Q59.3281 70.75 64.4062 67.2812" id="BitstreamVeraSans-Roman-43"/>
     <path d="
M44.3906 34.1875
Q47.5625 33.1094 50.5625 29.5938
Q53.5625 26.0781 56.5938 19.9219
L66.6094 0
L56 0
L46.6875 18.7031
Q43.0625 26.0312 39.6719 28.4219
Q36.2812 30.8125 30.4219 30.8125
L19.6719 30.8125
L19.6719 0
L9.8125 0
L9.8125 72.9062
L32.0781 72.9062
Q44.5781 72.9062 50.7344 67.6719
Q56.8906 62.4531 56.8906 51.9062
Q56.8906 45.0156 53.6875 40.4688
Q50.4844 35.9375 44.3906 34.1875
M19.6719 64.7969
L19.6719 38.9219
L32.0781 38.9219
Q39.2031 38.9219 42.8438 42.2188
Q46.4844 45.5156 46.4844 51.9062
Q46.4844 58.2969 42.8438 61.5469
Q39.2031 64.7969 32.0781 64.7969
z
" id="BitstreamVeraSans-Roman-52"/>
     <path d="
M9.42188 54.6875
L18.4062 54.6875
L18.4062 0
L9.42188 0
z

M9.42188 75.9844
L18.4062 75.9844
L18.4062 64.5938
L9.42188 64.5938
z
" id="BitstreamVeraSans-Roman-69"/>
     <path d="
M9.42188 75.9844
L18.4062 75.9844
L18.4062 0
L9.42188 0
z
" id="BitstreamVeraSans-Roman-6c"/>
     <path d="
M56.2031 29.5938
L56.2031 25.2031
L14.8906 25.2031
Q15.4844 15.9219 20.4844 11.0625
Q25.4844 6.20312 34.4219 6.20312
Q39.5938 6.20312 44.4531 7.46875
Q49.3125 8.73438 54.1094 11.2812
L54.1094 2.78125
Q49.2656 0.734375 44.1875 -0.34375
Q39.1094 -1.42188 33.8906 -1.42188
Q20.7969 -1.42188 13.1562 6.1875
Q5.51562 13.8125 5.51562 26.8125
Q5.51562 40.2344 12.7656 48.1094
Q20.0156 56 32.3281 56
Q43.3594 56 49.7812 48.8906
Q56.2031 41.7969 56.2031 29.5938
M47.2188 32.2344
Q47.125 39.5938 43.0938 43.9844
Q39.0625 48.3906 32.4219 48.3906
Q24.9062 48.3906 20.3906 44.1406
Q15.875 39.8906 15.1875 32.1719
z
" id="BitstreamVeraSans-Roman-65"/>
     <path d="
M45.4062 46.3906
L45.4062 75.9844
L54.3906 75.9844
L54.3906 0
L45.4062 0
L45.4062 8.20312
Q42.5781 3.32812 38.25 0.953125
Q33.9375 -1.42188 27.875 -1.42188
Q17.9688 -1.42188 11.7344 6.48438
Q5.51562 14.4062 5.51562 27.2969
Q5.51562 40.1875 11.7344 48.0938
Q17.9688 56 27.875 56
Q33.9375 56 38.25 53.625
Q42.5781 51.2656 45.4062 46.3906
M14.7969 27.2969
Q14.7969 17.3906 18.875 11.75
Q22.9531 6.10938 30.0781 6.10938
Q37.2031 6.10938 41.2969 11.75
Q45.4062 17.3906 45.4062 27.2969
Q45.4062 37.2031 41.2969 42.8438
Q37.2031 48.4844 30.0781 48.4844
Q22.9531 48.4844 18.875 42.8438
Q14.7969 37.2031 14.7969 27.2969" id="BitstreamVeraSans-Roman-64"/>
     <path d="
M45.4062 27.9844
Q45.4062 37.75 41.375 43.1094
Q37.3594 48.4844 30.0781 48.4844
Q22.8594 48.4844 18.8281 43.1094
Q14.7969 37.75 14.7969 27.9844
Q14.7969 18.2656 18.8281 12.8906
Q22.8594 7.51562 30.0781 7.51562
Q37.3594 7.51562 41.375 12.8906
Q45.4062 18.2656 45.4062 27.9844
M54.3906 6.78125
Q54.3906 -7.17188 48.1875 -13.9844
Q42 -20.7969 29.2031 -20.7969
Q24.4688 -20.7969 20.2656 -20.0938
Q16.0625 -19.3906 12.1094 -17.9219
L12.1094 -9.1875
Q16.0625 -11.3281 19.9219 -12.3438
Q23.7812 -13.375 27.7812 -13.375
Q36.625 -13.375 41.0156 -8.76562
Q45.4062 -4.15625 45.4062 5.17188
L45.4062 9.625
Q42.625 4.78125 38.2812 2.39062
Q33.9375 0 27.875 0
Q17.8281 0 11.6719 7.65625
Q5.51562 15.3281 5.51562 27.9844
Q5.51562 40.6719 11.6719 48.3281
Q17.8281 56 27.875 56
Q33.9375 56 38.2812 53.6094
Q42.625 51.2188 45.4062 46.3906
L45.4062 54.6875
L54.3906 54.6875
z
" id="BitstreamVeraSans-Roman-67"/>
     <path d="
M37.1094 75.9844
L37.1094 68.5
L28.5156 68.5
Q23.6875 68.5 21.7969 66.5469
Q19.9219 64.5938 19.9219 59.5156
L19.9219 54.6875
L34.7188 54.6875
L34.7188 47.7031
L19.9219 47.7031
L19.9219 0
L10.8906 0
L10.8906 47.7031
L2.29688 47.7031
L2.29688 54.6875
L10.8906 54.6875
L10.8906 58.5
Q10.8906 67.625 15.1406 71.7969
Q19.3906 75.9844 28.6094 75.9844
z
" id="BitstreamVeraSans-Roman-66"/>
     <path d="
M34.2812 27.4844
Q23.3906 27.4844 19.1875 25
Q14.9844 22.5156 14.9844 16.5
Q14.9844 11.7188 18.1406 8.90625
Q21.2969 6.10938 26.7031 6.10938
Q34.1875 6.10938 38.7031 11.4062
Q43.2188 16.7031 43.2188 25.4844
L43.2188 27.4844
z

M52.2031 31.2031
L52.2031 0
L43.2188 0
L43.2188 8.29688
Q40.1406 3.32812 35.5469 0.953125
Q30.9531 -1.42188 24.3125 -1.42188
Q15.9219 -1.42188 10.9531 3.29688
Q6 8.01562 6 15.9219
Q6 25.1406 12.1719 29.8281
Q18.3594 34.5156 30.6094 34.5156
L43.2188 34.5156
L43.2188 35.4062
Q43.2188 41.6094 39.1406 45
Q35.0625 48.3906 27.6875 48.3906
Q23 48.3906 18.5469 47.2656
Q14.1094 46.1406 10.0156 43.8906
L10.0156 52.2031
Q14.9375 54.1094 19.5781 55.0469
Q24.2188 56 28.6094 56
Q40.4844 56 46.3438 49.8438
Q52.2031 43.7031 52.2031 31.2031" id="BitstreamVeraSans-Roman-61"/>
     <path d="
M44.2812 53.0781
L44.2812 44.5781
Q40.4844 46.5312 36.375 47.5
Q32.2812 48.4844 27.875 48.4844
Q21.1875 48.4844 17.8438 46.4375
Q14.5 44.3906 14.5 40.2812
Q14.5 37.1562 16.8906 35.375
Q19.2812 33.5938 26.5156 31.9844
L29.5938 31.2969
Q39.1562 29.25 43.1875 25.5156
Q47.2188 21.7812 47.2188 15.0938
Q47.2188 7.46875 41.1875 3.01562
Q35.1562 -1.42188 24.6094 -1.42188
Q20.2188 -1.42188 15.4531 -0.5625
Q10.6875 0.296875 5.42188 2
L5.42188 11.2812
Q10.4062 8.6875 15.2344 7.39062
Q20.0625 6.10938 24.8125 6.10938
Q31.1562 6.10938 34.5625 8.28125
Q37.9844 10.4531 37.9844 14.4062
Q37.9844 18.0625 35.5156 20.0156
Q33.0625 21.9688 24.7031 23.7812
L21.5781 24.5156
Q13.2344 26.2656 9.51562 29.9062
Q5.8125 33.5469 5.8125 39.8906
Q5.8125 47.6094 11.2812 51.7969
Q16.75 56 26.8125 56
Q31.7812 56 36.1719 55.2656
Q40.5781 54.5469 44.2812 53.0781" id="BitstreamVeraSans-Roman-73"/>
    </defs>
    <g transform="translate(54.9945 566.01)scale(0.1 -0.1)">
     <use xlink:href="#BitstreamVeraSans-Roman-52"/>
     <use x="69.482421875" xlink:href="#BitstreamVeraSans-Roman-69"/>
     <use x="97.265625" xlink:href="#BitstreamVeraSans-Roman-64"/>
     <use x="160.7421875" xlink:href="#BitstreamVeraSans-Roman-67"/>
     <use x="224.21875" xlink:href="#BitstreamVeraSans-Roman-65"/>
     <use x="285.7421875" xlink:href="#BitstreamVeraSans-Roman-43"/>
     <use x="355.56640625" xlink:href="#BitstreamVeraSans-Roman-6c"/>
     <use x="383.349609375" xlink:href="#BitstreamVeraSans-Roman-61"/>
     <use x="444.62890625" xlink:href="#BitstreamVeraSans-Roman-73"/>
     <use x="496.728515625" xlink:href="#BitstreamVeraSans-Roman-73"/>
     <use x="548.828125" xlink:href="#BitstreamVeraSans-Roman-69"/>
     <use x="576.611328125" xlink:href="#BitstreamVeraSans-Roman-66"/>
     <use x="611.81640625" xlink:href="#BitstreamVeraSans-Roman-69"/>
     <use x="639.599609375" xlink:href="#BitstreamVeraSans-Roman-65"/>
     <use x="701.123046875" xlink:href="#BitstreamVeraSans-Roman-72"/>
    </g>
   </g>
   <g id="text_8">
    <!-- Perceptron -->
    <defs>
     <path d="
M54.8906 33.0156
L54.8906 0
L45.9062 0
L45.9062 32.7188
Q45.9062 40.4844 42.875 44.3281
Q39.8438 48.1875 33.7969 48.1875
Q26.5156 48.1875 22.3125 43.5469
Q18.1094 38.9219 18.1094 30.9062
L18.1094 0
L9.07812 0
L9.07812 54.6875
L18.1094 54.6875
L18.1094 46.1875
Q21.3438 51.125 25.7031 53.5625
Q30.0781 56 35.7969 56
Q45.2188 56 50.0469 50.1719
Q54.8906 44.3438 54.8906 33.0156" id="BitstreamVeraSans-Roman-6e"/>
     <path d="
M30.6094 48.3906
Q23.3906 48.3906 19.1875 42.75
Q14.9844 37.1094 14.9844 27.2969
Q14.9844 17.4844 19.1562 11.8438
Q23.3438 6.20312 30.6094 6.20312
Q37.7969 6.20312 41.9844 11.8594
Q46.1875 17.5312 46.1875 27.2969
Q46.1875 37.0156 41.9844 42.7031
Q37.7969 48.3906 30.6094 48.3906
M30.6094 56
Q42.3281 56 49.0156 48.375
Q55.7188 40.7656 55.7188 27.2969
Q55.7188 13.875 49.0156 6.21875
Q42.3281 -1.42188 30.6094 -1.42188
Q18.8438 -1.42188 12.1719 6.21875
Q5.51562 13.875 5.51562 27.2969
Q5.51562 40.7656 12.1719 48.375
Q18.8438 56 30.6094 56" id="BitstreamVeraSans-Roman-6f"/>
     <path d="
M19.6719 64.7969
L19.6719 37.4062
L32.0781 37.4062
Q38.9688 37.4062 42.7188 40.9688
Q46.4844 44.5312 46.4844 51.125
Q46.4844 57.6719 42.7188 61.2344
Q38.9688 64.7969 32.0781 64.7969
z

M9.8125 72.9062
L32.0781 72.9062
Q44.3438 72.9062 50.6094 67.3594
Q56.8906 61.8125 56.8906 51.125
Q56.8906 40.3281 50.6094 34.8125
Q44.3438 29.2969 32.0781 29.2969
L19.6719 29.2969
L19.6719 0
L9.8125 0
z
" id="BitstreamVeraSans-Roman-50"/>
     <path d="
M48.7812 52.5938
L48.7812 44.1875
Q44.9688 46.2969 41.1406 47.3438
Q37.3125 48.3906 33.4062 48.3906
Q24.6562 48.3906 19.8125 42.8438
Q14.9844 37.3125 14.9844 27.2969
Q14.9844 17.2812 19.8125 11.7344
Q24.6562 6.20312 33.4062 6.20312
Q37.3125 6.20312 41.1406 7.25
Q44.9688 8.29688 48.7812 10.4062
L48.7812 2.09375
Q45.0156 0.34375 40.9844 -0.53125
Q36.9688 -1.42188 32.4219 -1.42188
Q20.0625 -1.42188 12.7812 6.34375
Q5.51562 14.1094 5.51562 27.2969
Q5.51562 40.6719 12.8594 48.3281
Q20.2188 56 33.0156 56
Q37.1562 56 41.1094 55.1406
Q45.0625 54.2969 48.7812 52.5938" id="BitstreamVeraSans-Roman-63"/>
     <path d="
M18.3125 70.2188
L18.3125 54.6875
L36.8125 54.6875
L36.8125 47.7031
L18.3125 47.7031
L18.3125 18.0156
Q18.3125 11.3281 20.1406 9.42188
Q21.9688 7.51562 27.5938 7.51562
L36.8125 7.51562
L36.8125 0
L27.5938 0
Q17.1875 0 13.2344 3.875
Q9.28125 7.76562 9.28125 18.0156
L9.28125 47.7031
L2.6875 47.7031
L2.6875 54.6875
L9.28125 54.6875
L9.28125 70.2188
z
" id="BitstreamVeraSans-Roman-74"/>
     <path d="
M18.1094 8.20312
L18.1094 -20.7969
L9.07812 -20.7969
L9.07812 54.6875
L18.1094 54.6875
L18.1094 46.3906
Q20.9531 51.2656 25.2656 53.625
Q29.5938 56 35.5938 56
Q45.5625 56 51.7812 48.0938
Q58.0156 40.1875 58.0156 27.2969
Q58.0156 14.4062 51.7812 6.48438
Q45.5625 -1.42188 35.5938 -1.42188
Q29.5938 -1.42188 25.2656 0.953125
Q20.9531 3.32812 18.1094 8.20312
M48.6875 27.2969
Q48.6875 37.2031 44.6094 42.8438
Q40.5312 48.4844 33.4062 48.4844
Q26.2656 48.4844 22.1875 42.8438
Q18.1094 37.2031 18.1094 27.2969
Q18.1094 17.3906 22.1875 11.75
Q26.2656 6.10938 33.4062 6.10938
Q40.5312 6.10938 44.6094 11.75
Q48.6875 17.3906 48.6875 27.2969" id="BitstreamVeraSans-Roman-70"/>
    </defs>
    <g transform="translate(54.9945 532.49625)scale(0.1 -0.1)">
     <use xlink:href="#BitstreamVeraSans-Roman-50"/>
     <use x="56.677734375" xlink:href="#BitstreamVeraSans-Roman-65"/>
     <use x="118.201171875" xlink:href="#BitstreamVeraSans-Roman-72"/>
     <use x="157.064453125" xlink:href="#BitstreamVeraSans-Roman-63"/>
     <use x="212.044921875" xlink:href="#BitstreamVeraSans-Roman-65"/>
     <use x="273.568359375" xlink:href="#BitstreamVeraSans-Roman-70"/>
     <use x="337.044921875" xlink:href="#BitstreamVeraSans-Roman-74"/>
     <use x="376.25390625" xlink:href="#BitstreamVeraSans-Roman-72"/>
     <use x="415.1171875" xlink:href="#BitstreamVeraSans-Roman-6f"/>
     <use x="476.298828125" xlink:href="#BitstreamVeraSans-Roman-6e"/>
    </g>
   </g>
   <g id="text_9">
    <!-- PassiveAggressiveClassifier -->
    <defs>
     <path d="
M2.98438 54.6875
L12.5 54.6875
L29.5938 8.79688
L46.6875 54.6875
L56.2031 54.6875
L35.6875 0
L23.4844 0
z
" id="BitstreamVeraSans-Roman-76"/>
     <path d="
M34.1875 63.1875
L20.7969 26.9062
L47.6094 26.9062
z

M28.6094 72.9062
L39.7969 72.9062
L67.5781 0
L57.3281 0
L50.6875 18.7031
L17.8281 18.7031
L11.1875 0
L0.78125 0
z
" id="BitstreamVeraSans-Roman-41"/>
    </defs>
    <g transform="translate(54.9945 498.9825)scale(0.1 -0.1)">
     <use xlink:href="#BitstreamVeraSans-Roman-50"/>
     <use x="55.802734375" xlink:href="#BitstreamVeraSans-Roman-61"/>
     <use x="117.08203125" xlink:href="#BitstreamVeraSans-Roman-73"/>
     <use x="169.181640625" xlink:href="#BitstreamVeraSans-Roman-73"/>
     <use x="221.28125" xlink:href="#BitstreamVeraSans-Roman-69"/>
     <use x="249.064453125" xlink:href="#BitstreamVeraSans-Roman-76"/>
     <use x="308.244140625" xlink:href="#BitstreamVeraSans-Roman-65"/>
     <use x="369.767578125" xlink:href="#BitstreamVeraSans-Roman-41"/>
     <use x="438.17578125" xlink:href="#BitstreamVeraSans-Roman-67"/>
     <use x="501.65234375" xlink:href="#BitstreamVeraSans-Roman-67"/>
     <use x="565.12890625" xlink:href="#BitstreamVeraSans-Roman-72"/>
     <use x="603.9921875" xlink:href="#BitstreamVeraSans-Roman-65"/>
     <use x="665.515625" xlink:href="#BitstreamVeraSans-Roman-73"/>
     <use x="717.615234375" xlink:href="#BitstreamVeraSans-Roman-73"/>
     <use x="769.71484375" xlink:href="#BitstreamVeraSans-Roman-69"/>
     <use x="797.498046875" xlink:href="#BitstreamVeraSans-Roman-76"/>
     <use x="856.677734375" xlink:href="#BitstreamVeraSans-Roman-65"/>
     <use x="918.201171875" xlink:href="#BitstreamVeraSans-Roman-43"/>
     <use x="988.025390625" xlink:href="#BitstreamVeraSans-Roman-6c"/>
     <use x="1015.80859375" xlink:href="#BitstreamVeraSans-Roman-61"/>
     <use x="1077.08789062" xlink:href="#BitstreamVeraSans-Roman-73"/>
     <use x="1129.1875" xlink:href="#BitstreamVeraSans-Roman-73"/>
     <use x="1181.28710938" xlink:href="#BitstreamVeraSans-Roman-69"/>
     <use x="1209.0703125" xlink:href="#BitstreamVeraSans-Roman-66"/>
     <use x="1244.27539062" xlink:href="#BitstreamVeraSans-Roman-69"/>
     <use x="1272.05859375" xlink:href="#BitstreamVeraSans-Roman-65"/>
     <use x="1333.58203125" xlink:href="#BitstreamVeraSans-Roman-72"/>
    </g>
   </g>
   <g id="text_10">
    <!-- KNeighborsClassifier -->
    <defs>
     <path d="
M9.8125 72.9062
L23.0938 72.9062
L55.4219 11.9219
L55.4219 72.9062
L64.9844 72.9062
L64.9844 0
L51.7031 0
L19.3906 60.9844
L19.3906 0
L9.8125 0
z
" id="BitstreamVeraSans-Roman-4e"/>
     <path d="
M48.6875 27.2969
Q48.6875 37.2031 44.6094 42.8438
Q40.5312 48.4844 33.4062 48.4844
Q26.2656 48.4844 22.1875 42.8438
Q18.1094 37.2031 18.1094 27.2969
Q18.1094 17.3906 22.1875 11.75
Q26.2656 6.10938 33.4062 6.10938
Q40.5312 6.10938 44.6094 11.75
Q48.6875 17.3906 48.6875 27.2969
M18.1094 46.3906
Q20.9531 51.2656 25.2656 53.625
Q29.5938 56 35.5938 56
Q45.5625 56 51.7812 48.0938
Q58.0156 40.1875 58.0156 27.2969
Q58.0156 14.4062 51.7812 6.48438
Q45.5625 -1.42188 35.5938 -1.42188
Q29.5938 -1.42188 25.2656 0.953125
Q20.9531 3.32812 18.1094 8.20312
L18.1094 0
L9.07812 0
L9.07812 75.9844
L18.1094 75.9844
z
" id="BitstreamVeraSans-Roman-62"/>
     <path d="
M9.8125 72.9062
L19.6719 72.9062
L19.6719 42.0938
L52.3906 72.9062
L65.0938 72.9062
L28.9062 38.9219
L67.6719 0
L54.6875 0
L19.6719 35.1094
L19.6719 0
L9.8125 0
z
" id="BitstreamVeraSans-Roman-4b"/>
     <path d="
M54.8906 33.0156
L54.8906 0
L45.9062 0
L45.9062 32.7188
Q45.9062 40.4844 42.875 44.3281
Q39.8438 48.1875 33.7969 48.1875
Q26.5156 48.1875 22.3125 43.5469
Q18.1094 38.9219 18.1094 30.9062
L18.1094 0
L9.07812 0
L9.07812 75.9844
L18.1094 75.9844
L18.1094 46.1875
Q21.3438 51.125 25.7031 53.5625
Q30.0781 56 35.7969 56
Q45.2188 56 50.0469 50.1719
Q54.8906 44.3438 54.8906 33.0156" id="BitstreamVeraSans-Roman-68"/>
    </defs>
    <g transform="translate(54.9945 465.46875)scale(0.1 -0.1)">
     <use xlink:href="#BitstreamVeraSans-Roman-4b"/>
     <use x="65.576171875" xlink:href="#BitstreamVeraSans-Roman-4e"/>
     <use x="140.380859375" xlink:href="#BitstreamVeraSans-Roman-65"/>
     <use x="201.904296875" xlink:href="#BitstreamVeraSans-Roman-69"/>
     <use x="229.6875" xlink:href="#BitstreamVeraSans-Roman-67"/>
     <use x="293.1640625" xlink:href="#BitstreamVeraSans-Roman-68"/>
     <use x="356.54296875" xlink:href="#BitstreamVeraSans-Roman-62"/>
     <use x="420.01953125" xlink:href="#BitstreamVeraSans-Roman-6f"/>
     <use x="481.201171875" xlink:href="#BitstreamVeraSans-Roman-72"/>
     <use x="522.314453125" xlink:href="#BitstreamVeraSans-Roman-73"/>
     <use x="574.4140625" xlink:href="#BitstreamVeraSans-Roman-43"/>
     <use x="644.23828125" xlink:href="#BitstreamVeraSans-Roman-6c"/>
     <use x="672.021484375" xlink:href="#BitstreamVeraSans-Roman-61"/>
     <use x="733.30078125" xlink:href="#BitstreamVeraSans-Roman-73"/>
     <use x="785.400390625" xlink:href="#BitstreamVeraSans-Roman-73"/>
     <use x="837.5" xlink:href="#BitstreamVeraSans-Roman-69"/>
     <use x="865.283203125" xlink:href="#BitstreamVeraSans-Roman-66"/>
     <use x="900.48828125" xlink:href="#BitstreamVeraSans-Roman-69"/>
     <use x="928.271484375" xlink:href="#BitstreamVeraSans-Roman-65"/>
     <use x="989.794921875" xlink:href="#BitstreamVeraSans-Roman-72"/>
    </g>
   </g>
   <g id="text_11">
    <!-- RandomForestClassifier -->
    <defs>
     <path d="
M52 44.1875
Q55.375 50.25 60.0625 53.125
Q64.75 56 71.0938 56
Q79.6406 56 84.2812 50.0156
Q88.9219 44.0469 88.9219 33.0156
L88.9219 0
L79.8906 0
L79.8906 32.7188
Q79.8906 40.5781 77.0938 44.375
Q74.3125 48.1875 68.6094 48.1875
Q61.625 48.1875 57.5625 43.5469
Q53.5156 38.9219 53.5156 30.9062
L53.5156 0
L44.4844 0
L44.4844 32.7188
Q44.4844 40.625 41.7031 44.4062
Q38.9219 48.1875 33.1094 48.1875
Q26.2188 48.1875 22.1562 43.5312
Q18.1094 38.875 18.1094 30.9062
L18.1094 0
L9.07812 0
L9.07812 54.6875
L18.1094 54.6875
L18.1094 46.1875
Q21.1875 51.2188 25.4844 53.6094
Q29.7812 56 35.6875 56
Q41.6562 56 45.8281 52.9688
Q50 49.9531 52 44.1875" id="BitstreamVeraSans-Roman-6d"/>
     <path d="
M9.8125 72.9062
L51.7031 72.9062
L51.7031 64.5938
L19.6719 64.5938
L19.6719 43.1094
L48.5781 43.1094
L48.5781 34.8125
L19.6719 34.8125
L19.6719 0
L9.8125 0
z
" id="BitstreamVeraSans-Roman-46"/>
    </defs>
    <g transform="translate(54.9945 431.955)scale(0.1 -0.1)">
     <use xlink:href="#BitstreamVeraSans-Roman-52"/>
     <use x="67.232421875" xlink:href="#BitstreamVeraSans-Roman-61"/>
     <use x="128.51171875" xlink:href="#BitstreamVeraSans-Roman-6e"/>
     <use x="191.890625" xlink:href="#BitstreamVeraSans-Roman-64"/>
     <use x="255.3671875" xlink:href="#BitstreamVeraSans-Roman-6f"/>
     <use x="316.548828125" xlink:href="#BitstreamVeraSans-Roman-6d"/>
     <use x="413.9609375" xlink:href="#BitstreamVeraSans-Roman-46"/>
     <use x="467.85546875" xlink:href="#BitstreamVeraSans-Roman-6f"/>
     <use x="529.037109375" xlink:href="#BitstreamVeraSans-Roman-72"/>
     <use x="567.900390625" xlink:href="#BitstreamVeraSans-Roman-65"/>
     <use x="629.423828125" xlink:href="#BitstreamVeraSans-Roman-73"/>
     <use x="681.5234375" xlink:href="#BitstreamVeraSans-Roman-74"/>
     <use x="720.732421875" xlink:href="#BitstreamVeraSans-Roman-43"/>
     <use x="790.556640625" xlink:href="#BitstreamVeraSans-Roman-6c"/>
     <use x="818.33984375" xlink:href="#BitstreamVeraSans-Roman-61"/>
     <use x="879.619140625" xlink:href="#BitstreamVeraSans-Roman-73"/>
     <use x="931.71875" xlink:href="#BitstreamVeraSans-Roman-73"/>
     <use x="983.818359375" xlink:href="#BitstreamVeraSans-Roman-69"/>
     <use x="1011.6015625" xlink:href="#BitstreamVeraSans-Roman-66"/>
     <use x="1046.80664062" xlink:href="#BitstreamVeraSans-Roman-69"/>
     <use x="1074.58984375" xlink:href="#BitstreamVeraSans-Roman-65"/>
     <use x="1136.11328125" xlink:href="#BitstreamVeraSans-Roman-72"/>
    </g>
   </g>
   <g id="text_12">
    <!-- LinearSVC -->
    <defs>
     <path d="
M53.5156 70.5156
L53.5156 60.8906
Q47.9062 63.5781 42.9219 64.8906
Q37.9375 66.2188 33.2969 66.2188
Q25.25 66.2188 20.875 63.0938
Q16.5 59.9688 16.5 54.2031
Q16.5 49.3594 19.4062 46.8906
Q22.3125 44.4375 30.4219 42.9219
L36.375 41.7031
Q47.4062 39.5938 52.6562 34.2969
Q57.9062 29 57.9062 20.125
Q57.9062 9.51562 50.7969 4.04688
Q43.7031 -1.42188 29.9844 -1.42188
Q24.8125 -1.42188 18.9688 -0.25
Q13.1406 0.921875 6.89062 3.21875
L6.89062 13.375
Q12.8906 10.0156 18.6562 8.29688
Q24.4219 6.59375 29.9844 6.59375
Q38.4219 6.59375 43.0156 9.90625
Q47.6094 13.2344 47.6094 19.3906
Q47.6094 24.75 44.3125 27.7812
Q41.0156 30.8125 33.5 32.3281
L27.4844 33.5
Q16.4531 35.6875 11.5156 40.375
Q6.59375 45.0625 6.59375 53.4219
Q6.59375 63.0938 13.4062 68.6562
Q20.2188 74.2188 32.1719 74.2188
Q37.3125 74.2188 42.625 73.2812
Q47.9531 72.3594 53.5156 70.5156" id="BitstreamVeraSans-Roman-53"/>
     <path d="
M9.8125 72.9062
L19.6719 72.9062
L19.6719 8.29688
L55.1719 8.29688
L55.1719 0
L9.8125 0
z
" id="BitstreamVeraSans-Roman-4c"/>
     <path d="
M28.6094 0
L0.78125 72.9062
L11.0781 72.9062
L34.1875 11.5312
L57.3281 72.9062
L67.5781 72.9062
L39.7969 0
z
" id="BitstreamVeraSans-Roman-56"/>
    </defs>
    <g transform="translate(54.9945 398.44125)scale(0.1 -0.1)">
     <use xlink:href="#BitstreamVeraSans-Roman-4c"/>
     <use x="55.712890625" xlink:href="#BitstreamVeraSans-Roman-69"/>
     <use x="83.49609375" xlink:href="#BitstreamVeraSans-Roman-6e"/>
     <use x="146.875" xlink:href="#BitstreamVeraSans-Roman-65"/>
     <use x="208.3984375" xlink:href="#BitstreamVeraSans-Roman-61"/>
     <use x="269.677734375" xlink:href="#BitstreamVeraSans-Roman-72"/>
     <use x="310.791015625" xlink:href="#BitstreamVeraSans-Roman-53"/>
     <use x="374.267578125" xlink:href="#BitstreamVeraSans-Roman-56"/>
     <use x="442.67578125" xlink:href="#BitstreamVeraSans-Roman-43"/>
    </g>
   </g>
   <g id="text_13">
    <!-- SGDClassifier -->
    <defs>
     <path d="
M59.5156 10.4062
L59.5156 29.9844
L43.4062 29.9844
L43.4062 38.0938
L69.2812 38.0938
L69.2812 6.78125
Q63.5781 2.73438 56.6875 0.65625
Q49.8125 -1.42188 42 -1.42188
Q24.9062 -1.42188 15.25 8.5625
Q5.60938 18.5625 5.60938 36.375
Q5.60938 54.25 15.25 64.2344
Q24.9062 74.2188 42 74.2188
Q49.125 74.2188 55.5469 72.4531
Q61.9688 70.7031 67.3906 67.2812
L67.3906 56.7812
Q61.9219 61.4219 55.7656 63.7656
Q49.6094 66.1094 42.8281 66.1094
Q29.4375 66.1094 22.7188 58.6406
Q16.0156 51.1719 16.0156 36.375
Q16.0156 21.625 22.7188 14.1562
Q29.4375 6.6875 42.8281 6.6875
Q48.0469 6.6875 52.1406 7.59375
Q56.25 8.5 59.5156 10.4062" id="BitstreamVeraSans-Roman-47"/>
     <path d="
M19.6719 64.7969
L19.6719 8.10938
L31.5938 8.10938
Q46.6875 8.10938 53.6875 14.9375
Q60.6875 21.7812 60.6875 36.5312
Q60.6875 51.1719 53.6875 57.9844
Q46.6875 64.7969 31.5938 64.7969
z

M9.8125 72.9062
L30.0781 72.9062
Q51.2656 72.9062 61.1719 64.0938
Q71.0938 55.2812 71.0938 36.5312
Q71.0938 17.6719 61.125 8.82812
Q51.1719 0 30.0781 0
L9.8125 0
z
" id="BitstreamVeraSans-Roman-44"/>
    </defs>
    <g transform="translate(54.9945 364.9275)scale(0.1 -0.1)">
     <use xlink:href="#BitstreamVeraSans-Roman-53"/>
     <use x="63.4765625" xlink:href="#BitstreamVeraSans-Roman-47"/>
     <use x="140.966796875" xlink:href="#BitstreamVeraSans-Roman-44"/>
     <use x="217.96875" xlink:href="#BitstreamVeraSans-Roman-43"/>
     <use x="287.79296875" xlink:href="#BitstreamVeraSans-Roman-6c"/>
     <use x="315.576171875" xlink:href="#BitstreamVeraSans-Roman-61"/>
     <use x="376.85546875" xlink:href="#BitstreamVeraSans-Roman-73"/>
     <use x="428.955078125" xlink:href="#BitstreamVeraSans-Roman-73"/>
     <use x="481.0546875" xlink:href="#BitstreamVeraSans-Roman-69"/>
     <use x="508.837890625" xlink:href="#BitstreamVeraSans-Roman-66"/>
     <use x="544.04296875" xlink:href="#BitstreamVeraSans-Roman-69"/>
     <use x="571.826171875" xlink:href="#BitstreamVeraSans-Roman-65"/>
     <use x="633.349609375" xlink:href="#BitstreamVeraSans-Roman-72"/>
    </g>
   </g>
   <g id="text_14">
    <!-- LinearSVC -->
    <g transform="translate(54.9945 331.41375)scale(0.1 -0.1)">
     <use xlink:href="#BitstreamVeraSans-Roman-4c"/>
     <use x="55.712890625" xlink:href="#BitstreamVeraSans-Roman-69"/>
     <use x="83.49609375" xlink:href="#BitstreamVeraSans-Roman-6e"/>
     <use x="146.875" xlink:href="#BitstreamVeraSans-Roman-65"/>
     <use x="208.3984375" xlink:href="#BitstreamVeraSans-Roman-61"/>
     <use x="269.677734375" xlink:href="#BitstreamVeraSans-Roman-72"/>
     <use x="310.791015625" xlink:href="#BitstreamVeraSans-Roman-53"/>
     <use x="374.267578125" xlink:href="#BitstreamVeraSans-Roman-56"/>
     <use x="442.67578125" xlink:href="#BitstreamVeraSans-Roman-43"/>
    </g>
   </g>
   <g id="text_15">
    <!-- SGDClassifier -->
    <g transform="translate(54.9945 297.9)scale(0.1 -0.1)">
     <use xlink:href="#BitstreamVeraSans-Roman-53"/>
     <use x="63.4765625" xlink:href="#BitstreamVeraSans-Roman-47"/>
     <use x="140.966796875" xlink:href="#BitstreamVeraSans-Roman-44"/>
     <use x="217.96875" xlink:href="#BitstreamVeraSans-Roman-43"/>
     <use x="287.79296875" xlink:href="#BitstreamVeraSans-Roman-6c"/>
     <use x="315.576171875" xlink:href="#BitstreamVeraSans-Roman-61"/>
     <use x="376.85546875" xlink:href="#BitstreamVeraSans-Roman-73"/>
     <use x="428.955078125" xlink:href="#BitstreamVeraSans-Roman-73"/>
     <use x="481.0546875" xlink:href="#BitstreamVeraSans-Roman-69"/>
     <use x="508.837890625" xlink:href="#BitstreamVeraSans-Roman-66"/>
     <use x="544.04296875" xlink:href="#BitstreamVeraSans-Roman-69"/>
     <use x="571.826171875" xlink:href="#BitstreamVeraSans-Roman-65"/>
     <use x="633.349609375" xlink:href="#BitstreamVeraSans-Roman-72"/>
    </g>
   </g>
   <g id="text_16">
    <!-- SGDClassifier -->
    <g transform="translate(54.9945 264.38625)scale(0.1 -0.1)">
     <use xlink:href="#BitstreamVeraSans-Roman-53"/>
     <use x="63.4765625" xlink:href="#BitstreamVeraSans-Roman-47"/>
     <use x="140.966796875" xlink:href="#BitstreamVeraSans-Roman-44"/>
     <use x="217.96875" xlink:href="#BitstreamVeraSans-Roman-43"/>
     <use x="287.79296875" xlink:href="#BitstreamVeraSans-Roman-6c"/>
     <use x="315.576171875" xlink:href="#BitstreamVeraSans-Roman-61"/>
     <use x="376.85546875" xlink:href="#BitstreamVeraSans-Roman-73"/>
     <use x="428.955078125" xlink:href="#BitstreamVeraSans-Roman-73"/>
     <use x="481.0546875" xlink:href="#BitstreamVeraSans-Roman-69"/>
     <use x="508.837890625" xlink:href="#BitstreamVeraSans-Roman-66"/>
     <use x="544.04296875" xlink:href="#BitstreamVeraSans-Roman-69"/>
     <use x="571.826171875" xlink:href="#BitstreamVeraSans-Roman-65"/>
     <use x="633.349609375" xlink:href="#BitstreamVeraSans-Roman-72"/>
    </g>
   </g>
   <g id="text_17">
    <!-- NearestCentroid -->
    <g transform="translate(54.9945 230.8725)scale(0.1 -0.1)">
     <use xlink:href="#BitstreamVeraSans-Roman-4e"/>
     <use x="74.8046875" xlink:href="#BitstreamVeraSans-Roman-65"/>
     <use x="136.328125" xlink:href="#BitstreamVeraSans-Roman-61"/>
     <use x="197.607421875" xlink:href="#BitstreamVeraSans-Roman-72"/>
     <use x="236.470703125" xlink:href="#BitstreamVeraSans-Roman-65"/>
     <use x="297.994140625" xlink:href="#BitstreamVeraSans-Roman-73"/>
     <use x="350.09375" xlink:href="#BitstreamVeraSans-Roman-74"/>
     <use x="389.302734375" xlink:href="#BitstreamVeraSans-Roman-43"/>
     <use x="459.126953125" xlink:href="#BitstreamVeraSans-Roman-65"/>
     <use x="520.650390625" xlink:href="#BitstreamVeraSans-Roman-6e"/>
     <use x="584.029296875" xlink:href="#BitstreamVeraSans-Roman-74"/>
     <use x="623.23828125" xlink:href="#BitstreamVeraSans-Roman-72"/>
     <use x="662.1015625" xlink:href="#BitstreamVeraSans-Roman-6f"/>
     <use x="723.283203125" xlink:href="#BitstreamVeraSans-Roman-69"/>
     <use x="751.06640625" xlink:href="#BitstreamVeraSans-Roman-64"/>
    </g>
   </g>
   <g id="text_18">
    <!-- MultinomialNB -->
    <defs>
     <path d="
M8.5 21.5781
L8.5 54.6875
L17.4844 54.6875
L17.4844 21.9219
Q17.4844 14.1562 20.5 10.2656
Q23.5312 6.39062 29.5938 6.39062
Q36.8594 6.39062 41.0781 11.0312
Q45.3125 15.6719 45.3125 23.6875
L45.3125 54.6875
L54.2969 54.6875
L54.2969 0
L45.3125 0
L45.3125 8.40625
Q42.0469 3.42188 37.7188 1
Q33.4062 -1.42188 27.6875 -1.42188
Q18.2656 -1.42188 13.375 4.4375
Q8.5 10.2969 8.5 21.5781" id="BitstreamVeraSans-Roman-75"/>
     <path d="
M9.8125 72.9062
L24.5156 72.9062
L43.1094 23.2969
L61.8125 72.9062
L76.5156 72.9062
L76.5156 0
L66.8906 0
L66.8906 64.0156
L48.0938 14.0156
L38.1875 14.0156
L19.3906 64.0156
L19.3906 0
L9.8125 0
z
" id="BitstreamVeraSans-Roman-4d"/>
     <path d="
M19.6719 34.8125
L19.6719 8.10938
L35.5 8.10938
Q43.4531 8.10938 47.2812 11.4062
Q51.125 14.7031 51.125 21.4844
Q51.125 28.3281 47.2812 31.5625
Q43.4531 34.8125 35.5 34.8125
z

M19.6719 64.7969
L19.6719 42.8281
L34.2812 42.8281
Q41.5 42.8281 45.0312 45.5312
Q48.5781 48.25 48.5781 53.8125
Q48.5781 59.3281 45.0312 62.0625
Q41.5 64.7969 34.2812 64.7969
z

M9.8125 72.9062
L35.0156 72.9062
Q46.2969 72.9062 52.3906 68.2188
Q58.5 63.5312 58.5 54.8906
Q58.5 48.1875 55.375 44.2344
Q52.25 40.2812 46.1875 39.3125
Q53.4688 37.75 57.5 32.7812
Q61.5312 27.8281 61.5312 20.4062
Q61.5312 10.6406 54.8906 5.3125
Q48.25 0 35.9844 0
L9.8125 0
z
" id="BitstreamVeraSans-Roman-42"/>
    </defs>
    <g transform="translate(54.9945 197.35875)scale(0.1 -0.1)">
     <use xlink:href="#BitstreamVeraSans-Roman-4d"/>
     <use x="86.279296875" xlink:href="#BitstreamVeraSans-Roman-75"/>
     <use x="149.658203125" xlink:href="#BitstreamVeraSans-Roman-6c"/>
     <use x="177.44140625" xlink:href="#BitstreamVeraSans-Roman-74"/>
     <use x="216.650390625" xlink:href="#BitstreamVeraSans-Roman-69"/>
     <use x="244.43359375" xlink:href="#BitstreamVeraSans-Roman-6e"/>
     <use x="307.8125" xlink:href="#BitstreamVeraSans-Roman-6f"/>
     <use x="368.994140625" xlink:href="#BitstreamVeraSans-Roman-6d"/>
     <use x="466.40625" xlink:href="#BitstreamVeraSans-Roman-69"/>
     <use x="494.189453125" xlink:href="#BitstreamVeraSans-Roman-61"/>
     <use x="555.46875" xlink:href="#BitstreamVeraSans-Roman-6c"/>
     <use x="583.251953125" xlink:href="#BitstreamVeraSans-Roman-4e"/>
     <use x="658.056640625" xlink:href="#BitstreamVeraSans-Roman-42"/>
    </g>
   </g>
   <g id="text_19">
    <!-- BernoulliNB -->
    <g transform="translate(54.9945 163.845)scale(0.1 -0.1)">
     <use xlink:href="#BitstreamVeraSans-Roman-42"/>
     <use x="68.603515625" xlink:href="#BitstreamVeraSans-Roman-65"/>
     <use x="130.126953125" xlink:href="#BitstreamVeraSans-Roman-72"/>
     <use x="169.490234375" xlink:href="#BitstreamVeraSans-Roman-6e"/>
     <use x="232.869140625" xlink:href="#BitstreamVeraSans-Roman-6f"/>
     <use x="294.05078125" xlink:href="#BitstreamVeraSans-Roman-75"/>
     <use x="357.4296875" xlink:href="#BitstreamVeraSans-Roman-6c"/>
     <use x="385.212890625" xlink:href="#BitstreamVeraSans-Roman-6c"/>
     <use x="412.99609375" xlink:href="#BitstreamVeraSans-Roman-69"/>
     <use x="440.779296875" xlink:href="#BitstreamVeraSans-Roman-4e"/>
     <use x="515.583984375" xlink:href="#BitstreamVeraSans-Roman-42"/>
    </g>
   </g>
   <g id="text_20">
    <!-- Pipeline -->
    <g transform="translate(54.9945 130.33125)scale(0.1 -0.1)">
     <use xlink:href="#BitstreamVeraSans-Roman-50"/>
     <use x="58.052734375" xlink:href="#BitstreamVeraSans-Roman-69"/>
     <use x="85.8359375" xlink:href="#BitstreamVeraSans-Roman-70"/>
     <use x="149.3125" xlink:href="#BitstreamVeraSans-Roman-65"/>
     <use x="210.8359375" xlink:href="#BitstreamVeraSans-Roman-6c"/>
     <use x="238.619140625" xlink:href="#BitstreamVeraSans-Roman-69"/>
     <use x="266.40234375" xlink:href="#BitstreamVeraSans-Roman-6e"/>
     <use x="329.78125" xlink:href="#BitstreamVeraSans-Roman-65"/>
    </g>
   </g>
   <g id="text_21">
    <!-- FastText -->
    <defs>
     <path d="
M-0.296875 72.9062
L61.375 72.9062
L61.375 64.5938
L35.5 64.5938
L35.5 0
L25.5938 0
L25.5938 64.5938
L-0.296875 64.5938
z
" id="BitstreamVeraSans-Roman-54"/>
     <path d="
M54.8906 54.6875
L35.1094 28.0781
L55.9062 0
L45.3125 0
L29.3906 21.4844
L13.4844 0
L2.875 0
L24.125 28.6094
L4.6875 54.6875
L15.2812 54.6875
L29.7812 35.2031
L44.2812 54.6875
z
" id="BitstreamVeraSans-Roman-78"/>
    </defs>
    <g transform="translate(54.9945 96.8175)scale(0.1 -0.1)">
     <use xlink:href="#BitstreamVeraSans-Roman-46"/>
     <use x="48.39453125" xlink:href="#BitstreamVeraSans-Roman-61"/>
     <use x="109.673828125" xlink:href="#BitstreamVeraSans-Roman-73"/>
     <use x="161.7734375" xlink:href="#BitstreamVeraSans-Roman-74"/>
     <use x="200.982421875" xlink:href="#BitstreamVeraSans-Roman-54"/>
     <use x="245.06640625" xlink:href="#BitstreamVeraSans-Roman-65"/>
     <use x="304.83984375" xlink:href="#BitstreamVeraSans-Roman-78"/>
     <use x="364.01953125" xlink:href="#BitstreamVeraSans-Roman-74"/>
    </g>
   </g>
   <g id="text_22">
    <!-- GensimFastText -->
    <g transform="translate(54.9945 63.30375)scale(0.1 -0.1)">
     <use xlink:href="#BitstreamVeraSans-Roman-47"/>
     <use x="77.490234375" xlink:href="#BitstreamVeraSans-Roman-65"/>
     <use x="139.013671875" xlink:href="#BitstreamVeraSans-Roman-6e"/>
     <use x="202.392578125" xlink:href="#BitstreamVeraSans-Roman-73"/>
     <use x="254.4921875" xlink:href="#BitstreamVeraSans-Roman-69"/>
     <use x="282.275390625" xlink:href="#BitstreamVeraSans-Roman-6d"/>
     <use x="379.6875" xlink:href="#BitstreamVeraSans-Roman-46"/>
     <use x="428.08203125" xlink:href="#BitstreamVeraSans-Roman-61"/>
     <use x="489.361328125" xlink:href="#BitstreamVeraSans-Roman-73"/>
     <use x="541.4609375" xlink:href="#BitstreamVeraSans-Roman-74"/>
     <use x="580.669921875" xlink:href="#BitstreamVeraSans-Roman-54"/>
     <use x="624.75390625" xlink:href="#BitstreamVeraSans-Roman-65"/>
     <use x="684.52734375" xlink:href="#BitstreamVeraSans-Roman-78"/>
     <use x="743.70703125" xlink:href="#BitstreamVeraSans-Roman-74"/>
    </g>
   </g>
   <g id="text_23">
    <!-- Score -->
    <g transform="translate(555.6375 24.79)scale(0.144 -0.144)">
     <use xlink:href="#BitstreamVeraSans-Roman-53"/>
     <use x="63.4765625" xlink:href="#BitstreamVeraSans-Roman-63"/>
     <use x="118.45703125" xlink:href="#BitstreamVeraSans-Roman-6f"/>
     <use x="179.638671875" xlink:href="#BitstreamVeraSans-Roman-72"/>
     <use x="218.501953125" xlink:href="#BitstreamVeraSans-Roman-65"/>
    </g>
   </g>
   <g id="legend_1">
    <g id="patch_55">
     <path d="
M773.938 92.2313
L893.91 92.2313
L893.91 35.79
L773.938 35.79
z
" style="fill:#e5e5e5;stroke:#ffffff;stroke-linejoin:miter;stroke-width:0.5;"/>
    </g>
    <g id="patch_56">
     <path d="
M778.738 49.7081
L802.738 49.7081
L802.738 41.3081
L778.738 41.3081
z
" style="fill:#000080;stroke:#eeeeee;stroke-linejoin:miter;stroke-width:0.5;"/>
    </g>
    <g id="text_24">
     <!-- score -->
     <g transform="translate(812.338125 49.708125)scale(0.12 -0.12)">
      <use xlink:href="#BitstreamVeraSans-Roman-73"/>
      <use x="52.099609375" xlink:href="#BitstreamVeraSans-Roman-63"/>
      <use x="107.080078125" xlink:href="#BitstreamVeraSans-Roman-6f"/>
      <use x="168.26171875" xlink:href="#BitstreamVeraSans-Roman-72"/>
      <use x="207.125" xlink:href="#BitstreamVeraSans-Roman-65"/>
     </g>
    </g>
    <g id="patch_57">
     <path d="
M778.738 67.3219
L802.738 67.3219
L802.738 58.9219
L778.738 58.9219
z
" style="fill:#00bfbf;stroke:#eeeeee;stroke-linejoin:miter;stroke-width:0.5;"/>
    </g>
    <g id="text_25">
     <!-- training time -->
     <defs>
      <path id="BitstreamVeraSans-Roman-20"/>
     </defs>
     <g transform="translate(812.338125 67.321875)scale(0.12 -0.12)">
      <use xlink:href="#BitstreamVeraSans-Roman-74"/>
      <use x="39.208984375" xlink:href="#BitstreamVeraSans-Roman-72"/>
      <use x="80.322265625" xlink:href="#BitstreamVeraSans-Roman-61"/>
      <use x="141.6015625" xlink:href="#BitstreamVeraSans-Roman-69"/>
      <use x="169.384765625" xlink:href="#BitstreamVeraSans-Roman-6e"/>
      <use x="232.763671875" xlink:href="#BitstreamVeraSans-Roman-69"/>
      <use x="260.546875" xlink:href="#BitstreamVeraSans-Roman-6e"/>
      <use x="323.92578125" xlink:href="#BitstreamVeraSans-Roman-67"/>
      <use x="387.40234375" xlink:href="#BitstreamVeraSans-Roman-20"/>
      <use x="419.189453125" xlink:href="#BitstreamVeraSans-Roman-74"/>
      <use x="458.3984375" xlink:href="#BitstreamVeraSans-Roman-69"/>
      <use x="486.181640625" xlink:href="#BitstreamVeraSans-Roman-6d"/>
      <use x="583.59375" xlink:href="#BitstreamVeraSans-Roman-65"/>
     </g>
    </g>
    <g id="patch_58">
     <path d="
M778.738 84.9356
L802.738 84.9356
L802.738 76.5356
L778.738 76.5356
z
" style="fill:#ff8c00;stroke:#eeeeee;stroke-linejoin:miter;stroke-width:0.5;"/>
    </g>
    <g id="text_26">
     <!-- test time -->
     <g transform="translate(812.338125 84.935625)scale(0.12 -0.12)">
      <use xlink:href="#BitstreamVeraSans-Roman-74"/>
      <use x="39.208984375" xlink:href="#BitstreamVeraSans-Roman-65"/>
      <use x="100.732421875" xlink:href="#BitstreamVeraSans-Roman-73"/>
      <use x="152.83203125" xlink:href="#BitstreamVeraSans-Roman-74"/>
      <use x="192.041015625" xlink:href="#BitstreamVeraSans-Roman-20"/>
      <use x="223.828125" xlink:href="#BitstreamVeraSans-Roman-74"/>
      <use x="263.037109375" xlink:href="#BitstreamVeraSans-Roman-69"/>
      <use x="290.8203125" xlink:href="#BitstreamVeraSans-Roman-6d"/>
      <use x="388.232421875" xlink:href="#BitstreamVeraSans-Roman-65"/>
     </g>
    </g>
   </g>
  </g>
 </g>
 <defs>
  <clipPath id="ped7164e357">
   <rect height="536.22" width="649.935" x="249.975" y="29.79"/>
  </clipPath>
 </defs>
</svg>
